<?xml version="1.0" encoding="utf-8"?>
<!-- Generator: Adobe Illustrator 24.0.0, SVG Export Plug-In . SVG Version: 6.00 Build 0)  -->
<svg version="1.1" id="Layer_1" xmlns="http://www.w3.org/2000/svg" xmlns:xlink="http://www.w3.org/1999/xlink" x="0px" y="0px"
	 viewBox="0 0 3061 585.9" style="enable-background:new 0 0 3061 585.9;" xml:space="preserve">
<style type="text/css">
	.st0{fill:#FFFFFF;}
</style>
<g>
	<g>
		<path class="st0" d="M0,508v-52.3c0-4.8,2.4-6.8,7.2-6.1c21.7,0.7,36.8-2.4,45.5-9.4c8.6-7,12.9-19.3,12.9-36.9l-1.1-277.7
			c0-1.8,0.6-3.4,1.9-4.7c1.3-1.3,2.8-1.9,4.7-1.9h64.5c1.8,0,3.4,0.6,4.7,1.9c1.3,1.3,1.9,2.8,1.9,4.7v276.6
			c0,29.8-4,52.8-12.1,69.1c-8.1,16.3-21.8,27.8-41,34.4c-19.3,6.6-46.7,9.5-82.4,8.8C2.2,514.6,0,512.4,0,508z M72.2,74.7
			C64.1,66.4,60.1,56,60.1,43.5c0-12.8,4-23.3,12.1-31.4C80.2,4,90.5,0,103,0c12.9,0,23.3,4,31.4,12.1c8.1,8.1,12.1,18.6,12.1,31.4
			c0,12.5-4.1,22.9-12.4,31.1C125.9,82.9,115.5,87,103,87C90.5,87,80.2,82.9,72.2,74.7z"/>
		<path class="st0" d="M378.5,127c18.7,8.3,33.3,19.6,43.8,33.9c10.5,14.3,15.7,30.3,15.7,47.9v186.8c0,1.8-0.6,3.4-1.9,4.7
			c-1.3,1.3-2.9,1.9-4.7,1.9h-64.5c-1.8,0-3.4-0.6-4.7-1.9c-1.3-1.3-1.9-2.8-1.9-4.7v-18.2c0-1.1-0.4-1.8-1.1-2.2
			c-0.7-0.4-1.5,0-2.2,1.1c-15.4,20.2-40.2,30.3-74.4,30.3c-28.6,0-51.8-7-69.4-20.9c-17.6-14-26.4-34.5-26.4-61.7
			c0-28.3,9.9-50.2,29.8-65.8c19.8-15.6,48.1-23.4,84.8-23.4h56.2c1.8,0,2.8-0.9,2.8-2.8v-12.1c0-12.1-3.7-21.6-11-28.4
			c-7.4-6.8-18.4-10.2-33.1-10.2c-11.4,0-20.9,2-28.4,6.1c-7.5,4-12.4,9.7-14.6,17.1c-1.1,4-3.5,5.9-7.2,5.5l-66.7-8.8
			c-4.4-0.7-6.4-2.4-6.1-5c1.5-15.4,7.6-29.4,18.5-41.9c10.8-12.5,25.2-22.2,43-29.2c17.8-7,37.7-10.5,59.8-10.5
			C338.5,114.6,359.8,118.7,378.5,127z M343.8,336.1c11-8.4,16.5-19.3,16.5-32.5v-19.8c0-1.8-0.9-2.8-2.8-2.8h-39.7
			c-16.5,0-29.5,3.1-38.8,9.4c-9.4,6.3-14.1,15.1-14.1,26.4c0,9.9,3.5,17.7,10.5,23.4c7,5.7,16.3,8.5,28.1,8.5
			C319.4,348.7,332.8,344.5,343.8,336.1z"/>
		<path class="st0" d="M670.2,18.5c1.3-1.3,2.8-1.9,4.7-1.9h64.5c1.8,0,3.4,0.6,4.7,1.9c1.3,1.3,1.9,2.9,1.9,4.7v372.4
			c0,1.8-0.6,3.4-1.9,4.7c-1.3,1.3-2.9,1.9-4.7,1.9h-64.5c-1.8,0-3.4-0.6-4.7-1.9c-1.3-1.3-1.9-2.8-1.9-4.7v-18.2
			c0-1.1-0.4-1.7-1.1-1.9c-0.7-0.2-1.5,0.1-2.2,0.8c-15.4,20.2-36.6,30.3-63.4,30.3c-25.7,0-47.8-7.2-66.4-21.5
			c-18.6-14.3-31.9-34-39.9-59c-6.3-19.1-9.4-41.3-9.4-66.7c0-26.1,3.3-48.8,9.9-68.3c8.4-23.5,21.8-42.1,39.9-55.9
			c18.2-13.8,40.7-20.7,67.5-20.7c26.4,0,47,9.2,61.7,27.5c0.7,1.1,1.5,1.5,2.2,1.1c0.7-0.4,1.1-1.1,1.1-2.2V23.1
			C668.3,21.3,668.9,19.7,670.2,18.5z M667.7,260.6c0-24.6-4-43.9-12.1-57.9c-8.5-14.3-20.8-21.5-36.9-21.5
			c-17.3,0-30.3,7.2-39.1,21.5c-9.2,14.3-13.8,33.8-13.8,58.4c0,22,3.9,40.4,11.6,55.1c9.2,15.8,22.8,23.7,40.8,23.7
			c16.5,0,29.4-7.9,38.6-23.7C664.1,302.7,667.7,284.1,667.7,260.6z"/>
		<path class="st0" d="M850.1,382.4c-22-16.2-37.1-38.2-45.2-66.1c-5.1-17.3-7.7-36-7.7-56.2c0-21.7,2.6-41.1,7.7-58.4
			c8.4-27.2,23.7-48.5,45.7-63.9c22-15.4,48.5-23.1,79.3-23.1c30.1,0,55.8,7.6,77.1,22.9c21.3,15.2,36.4,36.5,45.2,63.6
			c5.9,18.4,8.8,37.7,8.8,57.9c0,19.8-2.6,38.4-7.7,55.6c-8.1,28.6-23.1,51.2-44.9,67.5c-21.9,16.3-48.2,24.5-79.1,24.5
			C898.6,406.6,872.1,398.5,850.1,382.4z M960.3,328.9c8.4-7.3,14.5-17.4,18.2-30.3c2.9-11.8,4.4-24.6,4.4-38.6
			c0-15.4-1.5-28.5-4.4-39.1c-4-12.5-10.3-22.2-18.7-29.2c-8.5-7-18.7-10.5-30.9-10.5c-12.5,0-22.9,3.5-31.1,10.5
			c-8.3,7-14.2,16.7-17.9,29.2c-2.9,8.8-4.4,21.9-4.4,39.1c0,16.5,1.3,29.4,3.9,38.6c3.7,12.9,9.8,23,18.5,30.3
			c8.6,7.4,19.2,11,31.7,11C941.6,339.9,951.8,336.3,960.3,328.9z"/>
		<path class="st0" d="M1330,141.6c18,18,27,42.4,27,73.3v180.7c0,1.8-0.6,3.4-1.9,4.7c-1.3,1.3-2.8,1.9-4.7,1.9h-64.5
			c-1.8,0-3.4-0.6-4.7-1.9c-1.3-1.3-1.9-2.8-1.9-4.7V230.8c0-14.7-4.1-26.6-12.4-35.8c-8.3-9.2-19.2-13.8-32.8-13.8
			c-13.6,0-24.5,4.6-32.8,13.8c-8.3,9.2-12.4,21.1-12.4,35.8v164.7c0,1.8-0.6,3.4-1.9,4.7c-1.3,1.3-2.8,1.9-4.7,1.9h-64.5
			c-1.8,0-3.4-0.6-4.7-1.9c-1.3-1.3-1.9-2.8-1.9-4.7v-270c0-1.8,0.6-3.4,1.9-4.7c1.3-1.3,2.8-1.9,4.7-1.9h64.5
			c1.8,0,3.4,0.6,4.7,1.9c1.3,1.3,1.9,2.8,1.9,4.7v19.3c0,1.1,0.4,1.8,1.1,2.2c0.7,0.4,1.3,0.2,1.7-0.6c15.1-21.3,37.5-32,67.2-32
			C1288.3,114.6,1312,123.6,1330,141.6z"/>
		<path class="st0" d="M1609.6,146.6c17.4,17.3,26.2,40,26.2,68.3v181.8c0,3.7-1.8,5.5-5.5,5.5H1612c-3.7,0-5.5-1.8-5.5-5.5V220.4
			c0-21.7-6.6-39.4-19.8-53.2c-13.2-13.8-30.5-20.7-51.8-20.7c-22,0-39.9,6.7-53.4,20.1c-13.6,13.4-20.4,30.9-20.4,52.6v177.4
			c0,3.7-1.8,5.5-5.5,5.5h-18.2c-3.7,0-5.5-1.8-5.5-5.5V22c0-3.7,1.8-5.5,5.5-5.5h18.2c3.7,0,5.5,1.8,5.5,5.5v135
			c0,1.1,0.3,1.7,0.8,1.9c0.6,0.2,1-0.1,1.4-0.8c8.1-12.1,18.7-21.4,32-27.8c13.2-6.4,28.5-9.6,45.7-9.6
			C1569.3,120.7,1592.1,129.3,1609.6,146.6z"/>
		<path class="st0" d="M1893.6,145.2c16.9,16.7,25.3,39.2,25.3,67.5v184c0,3.7-1.8,5.5-5.5,5.5h-18.2c-3.7,0-5.5-1.8-5.5-5.5v-25.9
			c0-0.7-0.3-1.3-0.8-1.7c-0.5-0.4-1.2-0.2-1.9,0.6c-9.6,12.1-22,21.3-37.2,27.5c-15.2,6.2-32.2,9.4-51,9.4
			c-25.3,0-46.8-6.4-64.5-19.3c-17.6-12.9-26.4-32.5-26.4-59c0-27.2,10.1-48.7,30.3-64.5c20.2-15.8,47.9-23.7,83.2-23.7h66.1
			c1.5,0,2.2-0.7,2.2-2.2v-24.8c0-20.6-5.8-36.9-17.4-49c-11.6-12.1-29.3-18.2-53.2-18.2c-18.7,0-34.2,3.9-46.3,11.6
			s-19.7,18-22.6,30.9c-1.1,3.7-3.3,5.3-6.6,5l-19.3-2.8c-4-0.7-5.7-2.2-5-4.4c3.3-19.8,14.1-35.8,32.2-47.9s40.8-18.2,68-18.2
			C1852.1,120.1,1876.7,128.5,1893.6,145.2z M1864.1,364.2c17.1-11.4,25.6-27.2,25.6-47.4v-50.1c0-1.5-0.7-2.2-2.2-2.2h-63.4
			c-26.1,0-47.1,5.5-63.1,16.5c-16,11-24,26.3-24,45.7c0,18,6.2,31.6,18.7,40.8c12.5,9.2,28.5,13.8,47.9,13.8
			C1826.9,381.3,1847,375.6,1864.1,364.2z"/>
		<path class="st0" d="M2184.2,146.6c17.4,17.3,26.2,40,26.2,68.3v181.8c0,3.7-1.8,5.5-5.5,5.5h-18.2c-3.7,0-5.5-1.8-5.5-5.5V220.4
			c0-21.7-6.6-39.4-19.8-53.2c-13.2-13.8-30.5-20.7-51.8-20.7c-22,0-39.9,6.7-53.4,20.1c-13.6,13.4-20.4,30.9-20.4,52.6v177.4
			c0,3.7-1.8,5.5-5.5,5.5H2012c-3.7,0-5.5-1.8-5.5-5.5V130c0-3.7,1.8-5.5,5.5-5.5h18.2c3.7,0,5.5,1.8,5.5,5.5v27
			c0,1.1,0.3,1.7,0.8,1.9c0.5,0.2,1-0.1,1.4-0.8c8.1-12.1,18.7-21.4,32-27.8c13.2-6.4,28.5-9.6,45.7-9.6
			C2143.9,120.7,2166.7,129.3,2184.2,146.6z"/>
		<path class="st0" d="M2336.3,395.3c-15.2-6.4-27.1-15.2-35.5-26.2c-8.5-11-12.7-23.1-12.7-36.4v-7.2c0-3.7,1.8-5.5,5.5-5.5h17.1
			c3.7,0,5.5,1.8,5.5,5.5v6.1c0,13.6,6.8,25.3,20.4,35c13.6,9.7,30.9,14.6,51.8,14.6c20.6,0,37.3-5,50.1-14.9
			c12.8-9.9,19.3-22.2,19.3-36.9c0-10.3-3.3-18.7-9.9-25.3c-6.6-6.6-14.4-11.7-23.4-15.2c-9-3.5-22.5-8-40.5-13.5
			c-20.6-6.2-37.1-12.1-49.6-17.6c-12.5-5.5-23.1-13.3-31.7-23.4c-8.6-10.1-12.9-22.9-12.9-38.3c0-22.4,8.9-40.3,26.7-53.7
			c17.8-13.4,41.2-20.1,70.2-20.1c19.5,0,36.6,3.2,51.5,9.6c14.9,6.4,26.5,15.2,34.7,26.2c8.3,11,12.4,23.5,12.4,37.5v1.7
			c0,3.7-1.8,5.5-5.5,5.5h-17.1c-3.7,0-5.5-1.8-5.5-5.5v-1.7c0-14-6.5-25.6-19.6-35c-13-9.4-30.2-14-51.5-14
			c-20.6,0-37.1,4.3-49.6,12.9c-12.5,8.6-18.7,20.3-18.7,35c0,14,5.8,24.4,17.4,31.4c11.6,7,29.7,14.1,54.3,21.5
			c21.3,6.2,38.3,12.1,51,17.6c12.7,5.5,23.6,13.3,32.8,23.4c9.2,10.1,13.8,23.2,13.8,39.4c0,23.1-8.9,41.8-26.7,55.9
			c-17.8,14.1-41.6,21.2-71.3,21.2C2369,404.9,2351.5,401.7,2336.3,395.3z"/>
		<path class="st0" d="M2713.1,368.9c12.3-7.9,21.9-18.8,28.9-32.8c1.8-3.3,4.2-4.2,7.2-2.8l14.3,7.2c3.3,1.8,4.2,4.2,2.8,7.2
			c-8.1,18-20.8,32.3-38.3,43c-17.5,10.7-37.9,16-61.4,16c-25.7,0-47.6-6.2-65.6-18.7c-18-12.5-30.3-29.6-36.9-51.2
			c-2.9-9.2-5-19.5-6.1-30.9c-1.1-11.4-1.7-25.7-1.7-43c0-18,0.3-31.6,0.8-40.8c0.5-9.2,1.7-17.6,3.6-25.3
			c5.9-23.1,17.9-41.7,36.1-55.6c18.2-14,40.5-20.9,66.9-20.9c30.1,0,54.2,7.8,72.2,23.4c18,15.6,29.2,37.2,33.6,64.7
			c1.1,7,1.8,15.2,2.2,24.5c0.4,9.4,0.5,21,0.5,35c0,3.7-1.8,5.5-5.5,5.5h-179.6c-1.5,0-2.2,0.7-2.2,2.2c0,23.5,0.9,39.1,2.8,46.8
			c4,18,13.1,32.2,27.3,42.7c14.1,10.5,32,15.7,53.7,15.7C2686,380.7,2700.8,376.8,2713.1,368.9z M2585,246.3c0,1.5,0.7,2.2,2.2,2.2
			h153.7c1.5,0,2.2-0.7,2.2-2.2c0-18.4-0.9-32.1-2.8-41.3c-4-17.6-12.9-31.9-26.4-42.7c-13.6-10.8-30.3-16.3-50.1-16.3
			s-36.4,5.2-49.6,15.7c-13.2,10.5-21.7,24.3-25.3,41.6C2587,210.3,2585.7,224.6,2585,246.3z"/>
		<path class="st0" d="M3034.8,146.6c17.4,17.3,26.2,40,26.2,68.3v181.8c0,3.7-1.8,5.5-5.5,5.5h-18.2c-3.7,0-5.5-1.8-5.5-5.5V220.4
			c0-21.7-6.6-39.4-19.8-53.2c-13.2-13.8-30.5-20.7-51.8-20.7c-22,0-39.9,6.7-53.4,20.1c-13.6,13.4-20.4,30.9-20.4,52.6v177.4
			c0,3.7-1.8,5.5-5.5,5.5h-18.2c-3.7,0-5.5-1.8-5.5-5.5V130c0-3.7,1.8-5.5,5.5-5.5h18.2c3.7,0,5.5,1.8,5.5,5.5v27
			c0,1.1,0.3,1.7,0.8,1.9c0.5,0.2,1-0.1,1.4-0.8c8.1-12.1,18.7-21.4,32-27.8c13.2-6.4,28.5-9.6,45.7-9.6
			C2994.5,120.7,3017.4,129.3,3034.8,146.6z"/>
	</g>
	<g>
		<path class="st0" d="M806.8,578.4c-6.4-5-9.6-11.6-9.6-20v-4.6c0-1,0.5-1.5,1.5-1.5h7.2c1,0,1.5,0.5,1.5,1.5v4
			c0,5.7,2.3,10.3,7,13.7c4.7,3.5,11.2,5.2,19.5,5.2c7.5,0,13.3-1.6,17.2-4.8c3.9-3.2,5.9-7.4,5.9-12.7c0-3.4-0.9-6.4-2.7-8.8
			c-1.8-2.4-4.6-4.7-8.4-6.9c-3.8-2.2-9.1-4.6-15.9-7.5c-7.3-2.9-13-5.5-17.1-7.7c-4.1-2.2-7.3-5-9.8-8.5c-2.5-3.5-3.7-7.9-3.7-13.1
			c0-8.2,2.9-14.6,8.6-19.2c5.7-4.6,13.6-6.8,23.6-6.8c10.9,0,19.4,2.5,25.7,7.6c6.3,5.1,9.4,11.8,9.4,20.3v3.2c0,1-0.5,1.5-1.5,1.5
			h-7.3c-1,0-1.5-0.5-1.5-1.5v-2.6c0-5.7-2.2-10.3-6.7-13.9c-4.5-3.6-10.6-5.4-18.6-5.4c-6.9,0-12.3,1.4-16,4.3
			c-3.7,2.8-5.6,6.9-5.6,12.3c0,3.5,0.9,6.4,2.7,8.7c1.8,2.3,4.4,4.3,7.8,6c3.4,1.7,8.6,3.9,15.6,6.7c7.1,2.9,12.9,5.7,17.2,8.2
			c4.4,2.5,7.9,5.7,10.6,9.3c2.7,3.7,4,8.1,4,13.4c0,8.2-3,14.8-9.1,19.7c-6.1,4.9-14.5,7.3-25.2,7.3
			C822,585.9,813.2,583.4,806.8,578.4z"/>
		<path class="st0" d="M961.2,581.7c-5.3-2.8-9.4-6.8-12.3-12c-2.9-5.1-4.3-11.1-4.3-17.8v-37c0-6.8,1.4-12.7,4.3-17.8
			c2.9-5.1,7-9.1,12.3-12c5.3-2.8,11.4-4.3,18.3-4.3c6.9,0,13.1,1.4,18.4,4.3c5.3,2.8,9.4,6.8,12.3,12c2.9,5.1,4.3,11.1,4.3,17.8v37
			c0,6.8-1.4,12.7-4.3,17.8c-2.9,5.1-7,9.1-12.3,12c-5.3,2.8-11.5,4.3-18.4,4.3C972.6,585.9,966.4,584.5,961.2,581.7z M997.4,570.2
			c4.5-4.5,6.8-10.5,6.8-17.9v-37.6c0-7.4-2.3-13.4-6.8-18c-4.5-4.6-10.5-6.8-17.9-6.8c-7.3,0-13.3,2.3-17.8,6.8
			c-4.5,4.6-6.8,10.5-6.8,18v37.6c0,7.4,2.2,13.4,6.8,17.9c4.5,4.5,10.4,6.8,17.8,6.8C986.9,577,992.9,574.7,997.4,570.2z"/>
		<path class="st0" d="M1162.7,491.1h-53.9c-0.4,0-0.6,0.2-0.6,0.6v36.3c0,0.4,0.2,0.6,0.6,0.6h37.7c1,0,1.5,0.5,1.5,1.5v6.2
			c0,1-0.5,1.5-1.5,1.5h-37.7c-0.4,0-0.6,0.2-0.6,0.6v45.1c0,1-0.5,1.5-1.5,1.5h-7.5c-1,0-1.5-0.5-1.5-1.5v-99.8
			c0-1,0.5-1.5,1.5-1.5h63.4c1,0,1.5,0.5,1.5,1.5v6.2C1164.2,490.6,1163.7,491.1,1162.7,491.1z"/>
		<path class="st0" d="M1303.3,483.5v6.3c0,1-0.5,1.5-1.5,1.5h-28.8c-0.4,0-0.6,0.2-0.6,0.6v91.4c0,1-0.5,1.5-1.5,1.5h-7.5
			c-1,0-1.5-0.5-1.5-1.5v-91.4c0-0.4-0.2-0.6-0.6-0.6h-27.6c-1,0-1.5-0.5-1.5-1.5v-6.3c0-1,0.5-1.5,1.5-1.5h68
			C1302.8,482,1303.3,482.5,1303.3,483.5z"/>
		<path class="st0" d="M1400.6,583.6l-28.2-100l-0.1-0.4c0-0.8,0.5-1.2,1.5-1.2h7.8c0.9,0,1.4,0.4,1.6,1.2l22.3,80.4
			c0.1,0.2,0.2,0.3,0.4,0.3c0.1,0,0.3-0.1,0.4-0.3l20.7-80.3c0.2-0.9,0.7-1.3,1.6-1.3h7.9c0.9,0,1.4,0.4,1.6,1.3l21.6,80.3
			c0.1,0.2,0.2,0.3,0.4,0.3c0.1,0,0.3-0.1,0.4-0.3l22.3-80.4c0.2-0.8,0.7-1.2,1.6-1.2h7.5c0.5,0,0.9,0.1,1.1,0.4
			c0.2,0.3,0.3,0.7,0.2,1.2l-27.7,100c-0.2,0.8-0.7,1.2-1.6,1.2h-7.8c-0.9,0-1.4-0.4-1.6-1.3l-21.4-82.2c-0.1-0.2-0.2-0.3-0.4-0.3
			c-0.1,0-0.3,0.1-0.4,0.3l-21,82.2c-0.1,0.9-0.6,1.3-1.6,1.3h-7.3C1401.5,584.7,1400.9,584.4,1400.6,583.6z"/>
		<path class="st0" d="M1615.2,583.6l-5.9-18.5c-0.1-0.3-0.3-0.4-0.6-0.4h-43.9c-0.3,0-0.5,0.1-0.6,0.4l-5.9,18.5
			c-0.3,0.8-0.9,1.2-1.8,1.2h-7.9c-1.1,0-1.5-0.5-1.2-1.6l32.4-100c0.3-0.8,0.9-1.2,1.8-1.2h10c0.9,0,1.5,0.4,1.8,1.2l32.6,100
			l0.1,0.6c0,0.7-0.4,1-1.3,1h-7.9C1616.1,584.7,1615.5,584.4,1615.2,583.6z M1567.3,555.9c0.1,0.1,0.3,0.2,0.5,0.2h37.9
			c0.2,0,0.4-0.1,0.5-0.2s0.2-0.3,0.1-0.5l-19.1-59.9c-0.1-0.2-0.2-0.3-0.4-0.3c-0.2,0-0.3,0.1-0.4,0.3l-19.1,59.9
			C1567.1,555.6,1567.1,555.8,1567.3,555.9z"/>
		<path class="st0" d="M1762,583.7l-21.6-45.5c-0.1-0.3-0.3-0.4-0.6-0.4h-25c-0.4,0-0.6,0.2-0.6,0.6v44.9c0,1-0.5,1.5-1.5,1.5h-7.5
			c-1,0-1.5-0.5-1.5-1.5v-99.8c0-1,0.5-1.5,1.5-1.5h38c8.4,0,15.2,2.6,20.4,7.9c5.2,5.2,7.8,12.1,7.8,20.5c0,6.8-1.9,12.7-5.6,17.5
			c-3.7,4.8-8.8,7.9-15.1,9.2c-0.4,0.2-0.5,0.4-0.3,0.7l22,45.2c0.1,0.2,0.1,0.4,0.1,0.7c0,0.7-0.4,1-1.2,1h-7.8
			C1762.9,584.7,1762.3,584.4,1762,583.7z M1714.3,491.7v37.1c0,0.4,0.2,0.6,0.6,0.6h27.3c5.7,0,10.3-1.8,13.8-5.3
			c3.5-3.5,5.3-8.1,5.3-13.8c0-5.7-1.8-10.3-5.3-13.9c-3.5-3.6-8.1-5.4-13.8-5.4h-27.3C1714.5,491.1,1714.3,491.3,1714.3,491.7z"/>
		<path class="st0" d="M1917.4,491.1h-54c-0.4,0-0.6,0.2-0.6,0.6v36.3c0,0.4,0.2,0.6,0.6,0.6h37.9c1,0,1.5,0.5,1.5,1.5v6.2
			c0,1-0.5,1.5-1.5,1.5h-37.9c-0.4,0-0.6,0.2-0.6,0.6v36.8c0,0.4,0.2,0.6,0.6,0.6h54c1,0,1.5,0.5,1.5,1.5v6.2c0,1-0.5,1.5-1.5,1.5
			h-63.6c-1,0-1.5-0.5-1.5-1.5v-99.8c0-1,0.5-1.5,1.5-1.5h63.6c1,0,1.5,0.5,1.5,1.5v6.2C1918.9,490.6,1918.4,491.1,1917.4,491.1z"/>
	</g>
</g>
</svg>
