<?xml version="1.0" encoding="utf-8"?>
<!-- Generator: Adobe Illustrator 25.0.1, SVG Export Plug-In . SVG Version: 6.00 Build 0)  -->
<svg version="1.1" id="Layer_1" xmlns="http://www.w3.org/2000/svg" xmlns:xlink="http://www.w3.org/1999/xlink" x="0px" y="0px"
	 viewBox="0 0 1107.6 212" style="enable-background:new 0 0 1107.6 212;" xml:space="preserve">
<style type="text/css">
	.st0{fill:#FFFFFF;}
</style>
<path class="st0" d="M604.4,203.2l-1.3-4.5c-0.1-0.1-0.2-0.2-0.2-0.2h-11.6c-0.1,0-0.2,0.1-0.3,0.2l-1.3,4.5
	c-0.1,0.3-0.4,0.5-0.7,0.5h-7.8c-0.2,0-0.3,0-0.5-0.2c-0.1-0.2-0.1-0.4,0-0.5l10.9-34.6c0.1-0.3,0.4-0.5,0.7-0.5h9.7
	c0.3,0,0.6,0.2,0.7,0.5l11,34.6c0,0.1,0,0.2,0,0.2c0,0.3-0.2,0.5-0.6,0.5h-7.8C604.8,203.7,604.5,203.5,604.4,203.2z M593.2,191.9
	h7.6c0.2,0,0.3-0.1,0.2-0.3l-3.9-13.1c0-0.1-0.1-0.2-0.2-0.2c-0.1,0-0.1,0.1-0.2,0.2l-3.8,13.1C593,191.8,593,191.9,593.2,191.9z"/>
<path class="st0" d="M648.9,169.3c1.7,0.9,3.2,2.3,4.1,4c1,1.8,1.5,3.9,1.5,6c0,2.1-0.5,4.1-1.5,5.9c-1,1.7-2.5,3.1-4.3,3.9
	c-2,1-4.2,1.4-6.4,1.4h-6.2c-0.1,0-0.2,0.1-0.3,0.2c0,0,0,0,0,0.1v12.3c0,0.2-0.1,0.3-0.2,0.4c-0.1,0.1-0.3,0.2-0.4,0.2H628
	c-0.2,0-0.3-0.1-0.4-0.2c-0.1-0.1-0.2-0.3-0.2-0.4v-34.6c0-0.3,0.3-0.6,0.6-0.6h14.8C644.9,167.9,647,168.4,648.9,169.3z
	 M644.7,182.6c0.9-0.8,1.3-1.9,1.3-3.1c0-1.2-0.4-2.3-1.3-3.1c-0.9-0.8-2.2-1.3-3.4-1.2h-5.3c-0.2,0-0.3,0.1-0.3,0.2v8.1
	c0,0.2,0.1,0.2,0.3,0.2h5.3C642.6,183.8,643.8,183.4,644.7,182.6z"/>
<path class="st0" d="M689.7,169.3c1.7,0.9,3.2,2.3,4.1,4c1,1.8,1.5,3.9,1.5,6c0,2.1-0.5,4.1-1.5,5.9c-1,1.7-2.5,3.1-4.3,3.9
	c-2,1-4.2,1.4-6.4,1.4h-6.2c-0.1,0-0.2,0.1-0.3,0.2c0,0,0,0,0,0.1v12.3c0,0.2-0.1,0.3-0.2,0.4c-0.1,0.1-0.3,0.2-0.4,0.2h-7.3
	c-0.2,0-0.3-0.1-0.4-0.2c-0.1-0.1-0.2-0.3-0.2-0.4v-34.6c0-0.3,0.3-0.6,0.6-0.6h14.8C685.6,167.9,687.8,168.4,689.7,169.3z
	 M685.5,182.6c0.9-0.8,1.3-1.9,1.3-3.1c0-1.2-0.4-2.3-1.3-3.1c-0.9-0.8-2.2-1.3-3.4-1.2h-5.3c-0.2,0-0.3,0.1-0.3,0.2v8.1
	c0,0.2,0.1,0.2,0.3,0.2h5.3C683.4,183.8,684.6,183.4,685.5,182.6L685.5,182.6z"/>
<path class="st0" d="M709.2,203.5c-0.1-0.1-0.2-0.3-0.2-0.4v-34.6c0-0.2,0.1-0.3,0.2-0.4c0.1-0.1,0.3-0.2,0.4-0.2h7.3
	c0.3,0,0.6,0.3,0.6,0.6v27.6c0,0.2,0.1,0.3,0.2,0.3h16.3c0.3,0,0.6,0.3,0.6,0.6v6c0,0.2-0.1,0.3-0.2,0.4c-0.1,0.1-0.3,0.2-0.4,0.2
	h-24.4C709.5,203.7,709.4,203.6,709.2,203.5z"/>
<path class="st0" d="M748.7,203.5c-0.1-0.1-0.2-0.3-0.2-0.4v-34.6c0-0.3,0.3-0.6,0.6-0.6h7.3c0.3,0,0.6,0.3,0.6,0.6v34.6
	c0,0.2-0.1,0.3-0.2,0.4c-0.1,0.1-0.3,0.2-0.4,0.2h-7.3C749,203.7,748.9,203.6,748.7,203.5z"/>
<path class="st0" d="M778.3,202.5c-2-1-3.7-2.6-4.8-4.5c-1.2-2.1-1.8-4.4-1.7-6.7v-11c0-2.3,0.5-4.6,1.7-6.7
	c1.1-1.9,2.8-3.5,4.8-4.5c2.2-1.1,4.7-1.6,7.2-1.6c2.5-0.1,4.9,0.5,7.2,1.5c2,0.9,3.6,2.4,4.8,4.2c1.2,1.9,1.8,4.1,1.7,6.3
	c0,0.2-0.1,0.3-0.2,0.4c-0.1,0.1-0.3,0.2-0.4,0.1l-7.3,0.5c-0.4,0-0.6-0.2-0.6-0.6c0.1-1.4-0.4-2.8-1.4-3.8c-1-1-2.4-1.5-3.8-1.4
	c-1.4-0.1-2.8,0.5-3.8,1.5c-1,1-1.5,2.4-1.4,3.8v11.6c0,2.9,2.3,5.2,5.2,5.2c2.9,0,5.2-2.3,5.2-5.2c0,0,0,0,0,0
	c0-0.4,0.2-0.6,0.6-0.6l7.3,0.4c0.2,0,0.3,0,0.4,0.1c0.1,0.1,0.2,0.2,0.2,0.4c0,2.2-0.5,4.5-1.7,6.4c-1.2,1.9-2.8,3.3-4.8,4.3
	c-2.2,1-4.7,1.6-7.2,1.5C783,204.2,780.5,203.6,778.3,202.5z"/>
<path class="st0" d="M835.2,203.2l-1.3-4.5c-0.1-0.1-0.2-0.2-0.3-0.2H822c-0.1,0-0.2,0.1-0.3,0.2l-1.3,4.5c-0.1,0.3-0.4,0.5-0.7,0.5
	h-7.8c-0.3,0.1-0.5-0.1-0.6-0.4c0-0.1,0-0.2,0.1-0.3l10.9-34.6c0.1-0.3,0.3-0.5,0.7-0.5h9.7c0.3,0,0.6,0.2,0.7,0.5l11,34.6
	c0,0.1,0.1,0.2,0,0.2c0,0.3-0.2,0.5-0.6,0.5H836C835.7,203.7,835.3,203.5,835.2,203.2z M824,191.9h7.6c0.2,0,0.3-0.1,0.2-0.3
	l-3.9-13.1c0-0.1-0.1-0.2-0.2-0.2c-0.1,0-0.1,0.1-0.2,0.2l-3.8,13.1C823.8,191.8,823.8,191.9,824,191.9z"/>
<path class="st0" d="M879.8,168.1c0.1,0.1,0.2,0.3,0.2,0.4v6.1c0,0.2-0.1,0.3-0.2,0.4c-0.1,0.1-0.3,0.2-0.4,0.2h-8.9
	c-0.2,0-0.3,0.1-0.3,0.2v27.6c0,0.2-0.1,0.3-0.2,0.4c-0.1,0.1-0.3,0.2-0.4,0.2h-7.3c-0.2,0-0.3-0.1-0.4-0.2
	c-0.1-0.1-0.2-0.3-0.2-0.4v-27.6c0-0.2-0.1-0.2-0.3-0.2h-8.6c-0.2,0-0.3-0.1-0.4-0.2c-0.1-0.1-0.2-0.3-0.2-0.4v-6.1
	c0-0.2,0.1-0.3,0.2-0.4c0.1-0.1,0.3-0.2,0.4-0.2h26.6C879.6,167.9,879.7,168,879.8,168.1z"/>
<path class="st0" d="M894.1,203.5c-0.1-0.1-0.2-0.3-0.2-0.4v-34.6c0-0.2,0.1-0.3,0.2-0.4c0.1-0.1,0.3-0.2,0.4-0.2h7.2
	c0.2,0,0.3,0.1,0.4,0.2c0.1,0.1,0.2,0.3,0.2,0.4v34.6c0,0.2-0.1,0.3-0.2,0.4c-0.1,0.1-0.3,0.2-0.4,0.2h-7.2
	C894.4,203.7,894.2,203.6,894.1,203.5z"/>
<path class="st0" d="M923.7,202.6c-2-1.1-3.7-2.7-4.9-4.7c-1.2-2.1-1.8-4.6-1.7-7v-10.2c0-2.4,0.6-4.8,1.7-6.9
	c1.2-2,2.8-3.6,4.9-4.6c4.6-2.2,10-2.2,14.6,0c2,1,3.7,2.7,4.9,4.6c1.2,2.1,1.8,4.5,1.7,6.9v10.2c0.1,2.4-0.5,4.9-1.7,7
	c-1.1,2-2.9,3.6-4.9,4.7C933.7,204.8,928.3,204.8,923.7,202.6L923.7,202.6z M935,195.4c1-1.2,1.6-2.7,1.5-4.2v-10.6
	c0.1-1.5-0.5-3.1-1.5-4.2c-1-1.1-2.5-1.7-4-1.6c-1.5-0.1-2.9,0.5-3.9,1.6c-1,1.2-1.6,2.7-1.5,4.2v10.6c-0.1,1.6,0.5,3.1,1.5,4.2
	c1,1.1,2.4,1.6,3.9,1.6C932.5,197.1,934,196.5,935,195.4z"/>
<path class="st0" d="M980.1,168.1c0.1-0.1,0.3-0.2,0.4-0.2h7.3c0.3,0,0.6,0.3,0.6,0.6v34.6c0,0.2-0.1,0.3-0.2,0.4
	c-0.1,0.1-0.3,0.2-0.4,0.2h-7c-0.3,0-0.6-0.1-0.7-0.4l-11.8-19.5c-0.1-0.1-0.1-0.1-0.2-0.1c-0.1,0-0.1,0.1-0.1,0.2l0,19.2
	c0,0.2-0.1,0.3-0.2,0.4c-0.1,0.1-0.3,0.2-0.4,0.2h-7.3c-0.2,0-0.3-0.1-0.4-0.2c-0.1-0.1-0.2-0.3-0.2-0.4v-34.6
	c0-0.2,0.1-0.3,0.2-0.4c0.1-0.1,0.3-0.2,0.4-0.2h7c0.3,0,0.6,0.1,0.7,0.4l11.7,19.5c0.1,0.1,0.1,0.1,0.2,0.1s0.1-0.1,0.1-0.2
	l-0.1-19.2C979.9,168.3,980,168.2,980.1,168.1z"/>
<path class="st0" d="M1009.3,202.7c-2-0.8-3.6-2.1-4.8-3.9c-1.2-1.7-1.8-3.8-1.7-5.9v-1c0-0.3,0.3-0.6,0.6-0.6h7.1
	c0.2,0,0.3,0.1,0.4,0.2c0.1,0.1,0.2,0.3,0.2,0.4v0.6c0,1.2,0.7,2.3,1.7,2.9c1.3,0.9,2.9,1.3,4.5,1.3c1.2,0.1,2.4-0.3,3.3-1
	c0.7-0.6,1.1-1.4,1.1-2.2c0-0.6-0.3-1.1-0.7-1.5c-0.5-0.5-1.1-0.8-1.7-1.1c-0.7-0.3-1.8-0.7-3.3-1.2c-0.2-0.1-0.4-0.2-0.6-0.2
	c-0.2,0-0.4-0.1-0.6-0.2c-2-0.6-3.9-1.4-5.8-2.3c-1.6-0.8-3.1-2-4.2-3.5c-1.2-1.6-1.8-3.5-1.7-5.5c0-2,0.5-3.9,1.7-5.6
	c1.2-1.6,2.8-2.9,4.6-3.6c2.1-0.9,4.4-1.3,6.7-1.3c2.4,0,4.8,0.5,7.1,1.4c2,0.9,3.7,2.2,4.9,4c1.2,1.8,1.8,3.9,1.8,6v0.7
	c0,0.2-0.1,0.3-0.2,0.4c-0.1,0.1-0.3,0.2-0.4,0.2h-7.1c-0.2,0-0.3-0.1-0.4-0.2c-0.1-0.1-0.2-0.3-0.2-0.4v-0.4c0-1.2-0.6-2.4-1.6-3.2
	c-1.2-1-2.7-1.5-4.2-1.4c-1.1-0.1-2.2,0.2-3.1,0.8c-0.7,0.5-1.2,1.4-1.1,2.3c0,0.7,0.2,1.4,0.7,1.9c0.6,0.6,1.4,1.1,2.2,1.4
	c1,0.4,2.5,1,4.6,1.7c2.4,0.8,4.2,1.5,5.6,2.1c1.5,0.7,2.7,1.7,3.8,3c1.2,1.5,1.9,3.5,1.8,5.4c0.1,2-0.5,4-1.7,5.7
	c-1.2,1.7-2.8,2.9-4.7,3.7c-2.2,0.9-4.7,1.4-7.1,1.3C1014.1,204.2,1011.6,203.7,1009.3,202.7z"/>
<path class="st0" d="M16.1,186.2v-18.4c0-1.7,0.8-2.4,2.5-2.1c7.6,0.2,12.9-0.8,16-3.3s4.5-6.8,4.5-13l-0.4-97.6
	c0-0.6,0.2-1.2,0.7-1.7c0.4-0.4,1-0.7,1.7-0.7h22.6c0.6,0,1.2,0.2,1.6,0.7c0.4,0.4,0.7,1,0.7,1.7V149c0,10.5-1.4,18.6-4.2,24.3
	c-2.8,5.7-7.6,9.8-14.4,12.1c-6.8,2.3-16.4,3.3-29,3.1c-1.1,0.2-2.1-0.5-2.3-1.6C16.1,186.7,16.1,186.5,16.1,186.2z M41.5,34
	c-2.9-2.9-4.4-6.9-4.2-11c-0.1-4.1,1.4-8.1,4.2-11c2.9-2.9,6.8-4.4,10.8-4.2c8-0.4,14.9,5.8,15.3,13.8c0,0.5,0,1,0,1.5
	c0.2,8.2-6.3,15.1-14.5,15.3c-0.3,0-0.5,0-0.8,0C48.2,38.5,44.3,36.9,41.5,34z"/>
<path class="st0" d="M149.1,52.4c6.1,2.5,11.4,6.7,15.4,11.9c3.6,4.9,5.6,10.8,5.6,16.8v65.6c0,1.3-1,2.3-2.3,2.3c0,0,0,0-0.1,0H145
	c-0.6,0-1.2-0.2-1.6-0.7c-0.4-0.4-0.7-1-0.7-1.6v-6.4c0-0.3-0.1-0.6-0.4-0.8c-0.2-0.1-0.5,0-0.8,0.4c-5.4,7.1-14.1,10.6-26.1,10.6
	c-10,0-18.2-2.5-24.4-7.3s-9.3-12.1-9.3-21.7c0-9.9,3.5-17.6,10.5-23.1s16.9-8.2,29.8-8.2h19.7c0.5,0.1,0.9-0.3,1-0.7
	c0-0.1,0-0.2,0-0.3V85c0-4.2-1.3-7.6-3.9-10s-6.5-3.6-11.6-3.6c-3.5-0.1-6.9,0.6-10,2.1c-2.5,1.2-4.3,3.4-5.1,6
	c-0.2,1.2-1.3,2.1-2.5,1.9c0,0,0,0,0,0l-23.4-3c-1.5-0.2-2.2-0.8-2.1-1.8c0.5-5.5,2.8-10.6,6.5-14.7c4.1-4.6,9.3-8.1,15.1-10.3
	c6.7-2.5,13.8-3.8,21-3.7C134.3,47.9,142,49.4,149.1,52.4z M136.9,125.8c3.7-2.6,5.9-6.9,5.8-11.4v-7c0.1-0.5-0.2-0.9-0.7-1
	c-0.1,0-0.2,0-0.3,0h-14c-5.8,0-10.4,1.1-13.6,3.3c-3.2,2-5.1,5.5-5,9.3c-0.1,3.2,1.2,6.2,3.7,8.2c2.5,2,5.7,3,9.9,3
	C127.7,130.4,132.7,128.9,136.9,125.8z"/>
<path class="st0" d="M251.6,14.3c0.4-0.4,1-0.7,1.6-0.7h22.7c0.6,0,1.2,0.2,1.6,0.7c0.4,0.4,0.7,1,0.7,1.6v130.8
	c0,1.3-1,2.3-2.3,2.3c0,0,0,0-0.1,0h-22.7c-0.6,0-1.2-0.2-1.6-0.7c-0.4-0.4-0.7-1-0.7-1.6v-6.4c0-0.4-0.1-0.6-0.4-0.7
	c-0.3-0.1-0.6,0.1-0.8,0.3c-5.4,7.1-12.9,10.6-22.3,10.6c-9,0-16.8-2.5-23.3-7.6c-6.5-5-11.2-11.9-14-20.7
	c-2.3-7.6-3.4-15.5-3.3-23.4c-0.2-8.1,1-16.2,3.5-24c2.6-7.8,7.5-14.6,14-19.6c6.4-4.8,14.3-7.3,23.7-7.3c9.3,0,16.5,3.2,21.7,9.7
	c0.2,0.4,0.5,0.5,0.8,0.4c0.3-0.2,0.4-0.5,0.4-0.8V15.9C250.8,15.3,251.1,14.7,251.6,14.3z M250.7,99.3c0-8.7-1.4-15.4-4.2-20.3
	c-3-5-7.3-7.6-13-7.6c-5.6-0.2-10.9,2.7-13.7,7.6c-3.2,5-4.9,11.9-4.9,20.5c0,7.7,1.4,14.2,4.1,19.4c3.2,5.6,8,8.3,14.3,8.3
	c5.8,0,10.3-2.8,13.6-8.3C249.4,114.1,250.7,107.6,250.7,99.3z"/>
<path class="st0" d="M314.8,142.1c-7.8-5.7-13.4-13.9-15.9-23.2c-1.8-6.4-2.8-13.1-2.7-19.8c-0.1-6.9,0.8-13.8,2.7-20.5
	c2.6-9.1,8.3-17,16.1-22.5c7.7-5.4,17-8.1,27.9-8.1c10.6,0,19.6,2.7,27.1,8c7.5,5.3,12.8,12.8,15.9,22.3c2.1,6.6,3.1,13.4,3.1,20.3
	c0,6.6-0.9,13.2-2.7,19.5c-2.9,10.1-8.1,18-15.8,23.7s-16.9,8.6-27.8,8.6S322.5,147.8,314.8,142.1z M353.5,123.3
	c3.1-2.8,5.4-6.5,6.4-10.6c1.1-4.4,1.6-9,1.5-13.6c0.1-4.6-0.4-9.2-1.5-13.7c-1.2-4-3.4-7.5-6.6-10.3c-3.1-2.5-6.9-3.8-10.9-3.7
	c-4-0.1-7.9,1.2-10.9,3.7c-3.1,2.7-5.3,6.3-6.3,10.3c-1,3.1-1.5,7.7-1.5,13.7c-0.1,4.6,0.3,9.1,1.3,13.6c1,4.1,3.3,7.8,6.5,10.6
	c3.1,2.6,7.1,4,11.1,3.9C346.6,127.3,350.5,125.9,353.5,123.3z"/>
<path class="st0" d="M483.4,57.5c6.3,6.3,9.5,14.9,9.5,25.7v63.5c0,0.6-0.2,1.2-0.7,1.6c-0.4,0.4-1,0.7-1.6,0.7h-22.7
	c-1.3,0-2.3-1-2.3-2.3c0,0,0,0,0-0.1V88.8c0-5.2-1.4-9.3-4.4-12.6c-6.2-6.4-16.4-6.5-22.8-0.3c-0.1,0.1-0.2,0.2-0.3,0.3
	c-2.9,3.2-4.4,7.4-4.4,12.6v57.9c0,0.6-0.2,1.2-0.7,1.6c-0.4,0.4-1,0.7-1.6,0.7h-22.7c-0.6,0-1.2-0.2-1.6-0.7
	c-0.4-0.4-0.7-1-0.7-1.6V51.8c0-0.6,0.2-1.2,0.7-1.7c0.4-0.4,1-0.7,1.6-0.7h22.7c0.6,0,1.2,0.2,1.6,0.7c0.4,0.4,0.7,1,0.7,1.7v6.8
	c0,0.3,0.1,0.6,0.4,0.8c0.2,0.1,0.4,0.1,0.5-0.1c0,0,0-0.1,0.1-0.1c5.3-7.5,13.2-11.2,23.6-11.2S477.1,51.2,483.4,57.5z"/>
<path class="st0" d="M581.6,59.3c6.1,6.1,9.2,14,9.2,24v63.9c0.1,0.9-0.5,1.8-1.4,1.9c-0.2,0-0.3,0-0.5,0h-6.4
	c-0.9,0.1-1.8-0.5-1.9-1.4c0-0.2,0-0.3,0-0.5V85.2c0-7.6-2.3-13.9-7-18.7c-4.7-4.8-10.7-7.3-18.2-7.3c-7.7,0-14,2.4-18.8,7.1
	s-7.2,10.9-7.2,18.5v62.3c0.1,0.9-0.5,1.8-1.4,1.9c-0.2,0-0.3,0-0.5,0H521c-0.9,0.1-1.8-0.5-1.9-1.4c0-0.2,0-0.3,0-0.5V15.5
	c-0.1-0.9,0.5-1.8,1.4-1.9c0.2,0,0.3,0,0.5,0h6.4c0.9-0.1,1.8,0.5,1.9,1.4c0,0.2,0,0.3,0,0.5v47.4c0,0.4,0.1,0.6,0.3,0.7
	s0.3,0,0.5-0.3c2.8-4.2,6.7-7.6,11.2-9.8c5-2.3,10.5-3.5,16.1-3.4C567.4,50.2,575.4,53.2,581.6,59.3z"/>
<path class="st0" d="M681.4,58.8c5.9,5.9,8.9,13.8,8.9,23.7v64.6c0.1,0.9-0.5,1.8-1.4,1.9c-0.2,0-0.3,0-0.5,0h-6.4
	c-0.9,0.1-1.8-0.5-1.9-1.4c0-0.2,0-0.3,0-0.5V138c0-0.2-0.1-0.4-0.3-0.6c-0.2-0.1-0.4-0.1-0.7,0.2c-3.4,4.3-7.9,7.7-13,9.7
	c-5.7,2.3-11.8,3.4-17.9,3.3c-8.9,0-16.4-2.3-22.7-6.8c-6.2-4.5-9.3-11.4-9.3-20.7c0-9.5,3.5-17.1,10.6-22.7s16.8-8.3,29.2-8.3h23.2
	c0.4,0.1,0.7-0.2,0.8-0.6c0-0.1,0-0.1,0-0.2v-8.7c0-7.2-2-13-6.1-17.2S663.6,59,655.2,59c-6.6,0-12,1.4-16.3,4.1
	c-4,2.4-6.9,6.3-7.9,10.9c-0.2,1.1-1.2,1.9-2.3,1.8l-6.8-1c-1.4-0.2-2-0.8-1.8-1.6c1.2-7,5-12.6,11.3-16.8s14.3-6.4,23.9-6.4
	C666.8,50,675.4,52.9,681.4,58.8z M671,135.7c5.8-3.6,9.2-9.9,9-16.7v-17.6c0-0.5-0.2-0.8-0.8-0.8h-22.3c-9.2,0-16.6,1.9-22.2,5.8
	c-5.4,3.5-8.6,9.6-8.4,16.1c0,6.3,2.2,11.1,6.6,14.3s10,4.9,16.8,4.9C657.9,141.7,665,139.7,671,135.7z"/>
<path class="st0" d="M783.5,59.3c6.1,6.1,9.2,14,9.2,24v63.9c0.1,0.9-0.5,1.8-1.4,1.9c-0.2,0-0.3,0-0.5,0h-6.4
	c-0.9,0.1-1.8-0.5-1.9-1.4c0-0.2,0-0.3,0-0.5V85.2c0-7.6-2.3-13.9-7-18.7c-4.7-4.8-10.7-7.3-18.2-7.3c-7.7,0-14,2.4-18.8,7.1
	s-7.2,10.9-7.2,18.5v62.3c0.1,0.9-0.5,1.8-1.4,1.9c-0.2,0-0.3,0-0.5,0H723c-0.9,0.2-1.8-0.4-2-1.3c0-0.2,0-0.4,0-0.6V53.4
	c-0.1-0.9,0.5-1.8,1.4-1.9c0.2,0,0.4,0,0.6,0h6.4c0.9-0.1,1.8,0.5,1.9,1.4c0,0.2,0,0.3,0,0.5v9.5c0,0.4,0.1,0.6,0.3,0.7
	s0.3,0,0.5-0.3c2.8-4.2,6.7-7.6,11.2-9.8c5-2.3,10.5-3.5,16-3.4C769.3,50.2,777.3,53.2,783.5,59.3z"/>
<path class="st0" d="M836.9,146.6c-4.9-1.9-9.2-5.1-12.5-9.2c-2.9-3.6-4.4-8.1-4.4-12.8v-2.5c-0.1-0.9,0.5-1.8,1.4-1.9
	c0.2,0,0.3,0,0.5,0h6c0.9-0.1,1.8,0.5,1.9,1.4c0,0.2,0,0.3,0,0.5v2.1c0,4.8,2.4,8.9,7.2,12.3c4.8,3.4,10.9,5.1,18.2,5.1
	s13.1-1.8,17.6-5.2s6.8-7.8,6.8-13c0.1-3.3-1.1-6.5-3.5-8.9c-2.3-2.3-5.1-4.2-8.2-5.3c-3.2-1.2-7.9-2.8-14.2-4.7
	c-5.9-1.7-11.7-3.8-17.4-6.2c-4.3-1.9-8.1-4.7-11.1-8.2c-3-3.5-4.5-8-4.5-13.4c-0.2-7.5,3.3-14.5,9.4-18.9
	c6.3-4.7,14.5-7.1,24.7-7.1c6.2-0.1,12.4,1,18.1,3.4c4.8,1.9,9,5.1,12.2,9.2c2.9,3.8,4.4,8.4,4.4,13.2V77c0.2,0.9-0.5,1.8-1.4,2
	c-0.2,0-0.4,0-0.6,0h-6c-0.9,0.1-1.8-0.5-1.9-1.4c0-0.2,0-0.3,0-0.5v-0.6c0-4.9-2.3-9-6.9-12.3s-10.6-4.9-18.1-4.9
	c-7.2,0-13,1.5-17.4,4.5c-4.2,2.7-6.7,7.3-6.6,12.3c-0.2,4.5,2.2,8.8,6.1,11c4.1,2.5,10.4,5,19.1,7.6c6.1,1.7,12.1,3.8,17.9,6.2
	c4.4,1.9,8.3,4.7,11.5,8.3c3.2,3.5,4.8,8.2,4.8,13.8c0.2,7.7-3.3,15-9.4,19.6c-6.3,5-14.6,7.4-25,7.4
	C849.1,150.1,842.8,149,836.9,146.6z"/>
<path class="st0" d="M969.3,137.4c4.4-2.8,7.9-6.8,10.2-11.5c0.3-0.9,1.3-1.4,2.2-1.1c0.1,0,0.2,0.1,0.3,0.1l5,2.5
	c0.9,0.3,1.4,1.3,1.1,2.2c0,0.1-0.1,0.2-0.1,0.3c-2.8,6.3-7.5,11.6-13.5,15.1c-6.2,3.8-13.3,5.6-21.6,5.6c-9,0-16.7-2.2-23-6.6
	c-6.3-4.3-10.9-10.7-13-18c-1.1-3.5-1.8-7.2-2.1-10.9c-0.4-4-0.6-9-0.6-15.1c0-6.3,0.1-11.1,0.3-14.3c0.1-3,0.6-6,1.3-8.9
	c1.8-7.8,6.3-14.7,12.7-19.5c6.4-4.9,14.2-7.3,23.5-7.3c10.6,0,19,2.7,25.4,8.2s10.3,13.1,11.8,22.8c0.4,2.9,0.7,5.7,0.8,8.6
	c0.2,3.3,0.2,7.4,0.2,12.3c0.1,0.9-0.5,1.8-1.4,1.9c-0.2,0-0.3,0-0.5,0H925c-0.5,0-0.8,0.2-0.8,0.8c0,8.2,0.3,13.7,1,16.4
	c1.2,6,4.6,11.4,9.6,15c5,3.7,11.2,5.5,18.9,5.5C959.2,141.7,964.6,140.2,969.3,137.4z M924.3,94.3c-0.1,0.4,0.2,0.7,0.6,0.8
	c0.1,0,0.1,0,0.2,0h54c0.4,0.1,0.7-0.2,0.8-0.6c0-0.1,0-0.1,0-0.2c0.1-4.9-0.2-9.7-1-14.5c-1.3-5.9-4.5-11.2-9.3-15
	c-4.8-3.8-10.7-5.7-17.6-5.7s-12.8,1.8-17.4,5.5c-4.6,3.6-7.8,8.8-8.9,14.6C925,81.7,924.5,86.7,924.3,94.3L924.3,94.3z"/>
<path class="st0" d="M1082.3,59.3c6.1,6.1,9.2,14,9.2,24v63.9c0.1,0.9-0.5,1.8-1.4,1.9c-0.2,0-0.3,0-0.5,0h-6.4
	c-0.9,0.1-1.8-0.5-1.9-1.4c0-0.2,0-0.3,0-0.5V85.2c0-7.6-2.3-13.9-7-18.7s-10.7-7.3-18.2-7.3c-7.7,0-14,2.4-18.8,7.1
	s-7.2,10.9-7.2,18.5v62.3c0.1,0.9-0.5,1.8-1.4,1.9c-0.2,0-0.3,0-0.5,0h-6.4c-0.9,0.1-1.8-0.5-1.9-1.4c0-0.2,0-0.3,0-0.5V53.4
	c-0.1-0.9,0.5-1.8,1.4-1.9c0.2,0,0.3,0,0.5,0h6.4c0.9-0.1,1.8,0.5,1.9,1.4c0,0.2,0,0.3,0,0.5v9.5c0,0.4,0.1,0.6,0.3,0.7
	s0.3,0,0.5-0.3c2.8-4.2,6.7-7.6,11.2-9.8c5-2.3,10.5-3.5,16-3.4C1068.1,50.2,1076.2,53.2,1082.3,59.3z"/>
</svg>
